<mxfile host="Electron" agent="Mozilla/5.0 (Windows NT 10.0; Win64; x64) AppleWebKit/537.36 (KHTML, like Gecko) draw.io/24.7.17 Chrome/128.0.6613.36 Electron/32.0.1 Safari/537.36" version="24.7.17">
  <diagram name="Página-1" id="fIBAwK0ZS0hClxAFwUvE">
    <mxGraphModel dx="606" dy="1859" grid="1" gridSize="10" guides="1" tooltips="1" connect="1" arrows="1" fold="1" page="1" pageScale="1" pageWidth="827" pageHeight="1169" math="0" shadow="0">
      <root>
        <mxCell id="0" />
        <mxCell id="1" parent="0" />
        <mxCell id="zt0pq-uVjFT4mnIxrxLI-6" value="CLIENTE" style="whiteSpace=wrap;html=1;align=center;" parent="1" vertex="1">
          <mxGeometry x="918" y="-380" width="100" height="40" as="geometry" />
        </mxCell>
        <mxCell id="zt0pq-uVjFT4mnIxrxLI-7" value="PESSOA" style="whiteSpace=wrap;html=1;align=center;" parent="1" vertex="1">
          <mxGeometry x="1090" y="-490" width="100" height="40" as="geometry" />
        </mxCell>
        <mxCell id="zt0pq-uVjFT4mnIxrxLI-8" value="PEDIDO" style="whiteSpace=wrap;html=1;align=center;" parent="1" vertex="1">
          <mxGeometry x="1260" y="-30" width="100" height="40" as="geometry" />
        </mxCell>
        <mxCell id="zt0pq-uVjFT4mnIxrxLI-9" value="ITEM" style="whiteSpace=wrap;html=1;align=center;" parent="1" vertex="1">
          <mxGeometry x="1864.63" y="-30" width="100" height="40" as="geometry" />
        </mxCell>
        <mxCell id="zt0pq-uVjFT4mnIxrxLI-10" value="INGREDIENTE" style="whiteSpace=wrap;html=1;align=center;" parent="1" vertex="1">
          <mxGeometry x="1995.88" y="370" width="105" height="40" as="geometry" />
        </mxCell>
        <mxCell id="zt0pq-uVjFT4mnIxrxLI-12" value="FAZ" style="shape=rhombus;perimeter=rhombusPerimeter;whiteSpace=wrap;html=1;align=center;" parent="1" vertex="1">
          <mxGeometry x="910" y="-40" width="116" height="60" as="geometry" />
        </mxCell>
        <mxCell id="zt0pq-uVjFT4mnIxrxLI-13" value="CONTÉM" style="shape=rhombus;perimeter=rhombusPerimeter;whiteSpace=wrap;html=1;align=center;" parent="1" vertex="1">
          <mxGeometry x="1552.37" y="-40" width="120" height="60" as="geometry" />
        </mxCell>
        <mxCell id="zt0pq-uVjFT4mnIxrxLI-14" value="INCLUI" style="shape=rhombus;perimeter=rhombusPerimeter;whiteSpace=wrap;html=1;align=center;" parent="1" vertex="1">
          <mxGeometry x="1985.63" y="260" width="120" height="60" as="geometry" />
        </mxCell>
        <mxCell id="zt0pq-uVjFT4mnIxrxLI-20" value="ENTREGA" style="shape=rhombus;perimeter=rhombusPerimeter;whiteSpace=wrap;html=1;align=center;" parent="1" vertex="1">
          <mxGeometry x="1250" y="-240" width="120" height="60" as="geometry" />
        </mxCell>
        <mxCell id="zt0pq-uVjFT4mnIxrxLI-43" value="" style="endArrow=none;html=1;rounded=0;entryX=0;entryY=0.5;entryDx=0;entryDy=0;exitX=1;exitY=0.5;exitDx=0;exitDy=0;" parent="1" source="zt0pq-uVjFT4mnIxrxLI-13" target="zt0pq-uVjFT4mnIxrxLI-9" edge="1">
          <mxGeometry relative="1" as="geometry">
            <mxPoint x="1650" y="-10" as="sourcePoint" />
            <mxPoint x="1600" y="-10" as="targetPoint" />
          </mxGeometry>
        </mxCell>
        <mxCell id="zt0pq-uVjFT4mnIxrxLI-59" value="Endereço" style="ellipse;whiteSpace=wrap;html=1;align=center;" parent="1" vertex="1">
          <mxGeometry x="1180" y="40" width="70" height="40" as="geometry" />
        </mxCell>
        <mxCell id="zt0pq-uVjFT4mnIxrxLI-60" value="&lt;u&gt;ID&lt;/u&gt;" style="ellipse;whiteSpace=wrap;html=1;align=center;" parent="1" vertex="1">
          <mxGeometry x="1195" y="140" width="40" height="40" as="geometry" />
        </mxCell>
        <mxCell id="zt0pq-uVjFT4mnIxrxLI-62" value="Data" style="ellipse;whiteSpace=wrap;html=1;align=center;" parent="1" vertex="1">
          <mxGeometry x="1190" y="90" width="50" height="40" as="geometry" />
        </mxCell>
        <mxCell id="zt0pq-uVjFT4mnIxrxLI-66" value="Status" style="ellipse;whiteSpace=wrap;html=1;align=center;" parent="1" vertex="1">
          <mxGeometry x="1130" y="-230" width="100" height="40" as="geometry" />
        </mxCell>
        <mxCell id="zt0pq-uVjFT4mnIxrxLI-79" value="" style="endArrow=none;html=1;rounded=0;exitX=1;exitY=0.5;exitDx=0;exitDy=0;entryX=0;entryY=0.5;entryDx=0;entryDy=0;" parent="1" source="zt0pq-uVjFT4mnIxrxLI-66" target="zt0pq-uVjFT4mnIxrxLI-20" edge="1">
          <mxGeometry relative="1" as="geometry">
            <mxPoint x="1235" y="-310" as="sourcePoint" />
            <mxPoint x="1310" y="-240" as="targetPoint" />
          </mxGeometry>
        </mxCell>
        <mxCell id="zt0pq-uVjFT4mnIxrxLI-87" value="Quantidade" style="ellipse;whiteSpace=wrap;html=1;align=center;" parent="1" vertex="1">
          <mxGeometry x="1570.87" y="-120" width="83" height="40" as="geometry" />
        </mxCell>
        <mxCell id="zt0pq-uVjFT4mnIxrxLI-88" value="" style="endArrow=none;html=1;rounded=0;exitX=0.5;exitY=1;exitDx=0;exitDy=0;entryX=0.5;entryY=0;entryDx=0;entryDy=0;" parent="1" source="zt0pq-uVjFT4mnIxrxLI-87" target="zt0pq-uVjFT4mnIxrxLI-13" edge="1">
          <mxGeometry relative="1" as="geometry">
            <mxPoint x="1631.37" y="-120" as="sourcePoint" />
            <mxPoint x="1569.37" y="-40" as="targetPoint" />
          </mxGeometry>
        </mxCell>
        <mxCell id="zt0pq-uVjFT4mnIxrxLI-89" value="&lt;u&gt;ID&lt;/u&gt;" style="ellipse;whiteSpace=wrap;html=1;align=center;" parent="1" vertex="1">
          <mxGeometry x="1990.63" y="-70" width="40" height="40" as="geometry" />
        </mxCell>
        <mxCell id="zt0pq-uVjFT4mnIxrxLI-90" value="" style="endArrow=none;html=1;rounded=0;exitX=0.5;exitY=1;exitDx=0;exitDy=0;entryX=1;entryY=0.25;entryDx=0;entryDy=0;" parent="1" source="zt0pq-uVjFT4mnIxrxLI-89" target="zt0pq-uVjFT4mnIxrxLI-9" edge="1">
          <mxGeometry relative="1" as="geometry">
            <mxPoint x="1921.63" y="-60" as="sourcePoint" />
            <mxPoint x="1904.63" y="-30" as="targetPoint" />
            <Array as="points">
              <mxPoint x="2010.63" y="-20" />
            </Array>
          </mxGeometry>
        </mxCell>
        <mxCell id="zt0pq-uVjFT4mnIxrxLI-93" value="" style="endArrow=none;html=1;rounded=0;entryX=1;entryY=0.5;entryDx=0;entryDy=0;entryPerimeter=0;exitX=0.5;exitY=1;exitDx=0;exitDy=0;" parent="1" source="7kGFSPkHBXp82wqXVGlI-1" target="zt0pq-uVjFT4mnIxrxLI-9" edge="1">
          <mxGeometry relative="1" as="geometry">
            <mxPoint x="2059.88" y="-30" as="sourcePoint" />
            <mxPoint x="2134.63" y="-10" as="targetPoint" />
            <Array as="points">
              <mxPoint x="2058.63" y="-10" />
            </Array>
          </mxGeometry>
        </mxCell>
        <mxCell id="zt0pq-uVjFT4mnIxrxLI-96" value="Preço" style="ellipse;whiteSpace=wrap;html=1;align=center;" parent="1" vertex="1">
          <mxGeometry x="2089.63" y="-70" width="60" height="40" as="geometry" />
        </mxCell>
        <mxCell id="zt0pq-uVjFT4mnIxrxLI-97" value="" style="endArrow=none;html=1;rounded=0;exitX=0.5;exitY=1;exitDx=0;exitDy=0;entryX=1;entryY=0.75;entryDx=0;entryDy=0;" parent="1" source="zt0pq-uVjFT4mnIxrxLI-96" target="zt0pq-uVjFT4mnIxrxLI-9" edge="1">
          <mxGeometry relative="1" as="geometry">
            <mxPoint x="2184.63" y="80" as="sourcePoint" />
            <mxPoint x="2122.63" y="23" as="targetPoint" />
            <Array as="points">
              <mxPoint x="2119.63" />
            </Array>
          </mxGeometry>
        </mxCell>
        <mxCell id="zt0pq-uVjFT4mnIxrxLI-98" value="&lt;u&gt;ID&lt;/u&gt;" style="ellipse;whiteSpace=wrap;html=1;align=center;" parent="1" vertex="1">
          <mxGeometry x="2124.63" y="315.86" width="40" height="40" as="geometry" />
        </mxCell>
        <mxCell id="zt0pq-uVjFT4mnIxrxLI-101" value="UnidadeMedida" style="ellipse;whiteSpace=wrap;html=1;align=center;" parent="1" vertex="1">
          <mxGeometry x="2325.63" y="315.86" width="110" height="40" as="geometry" />
        </mxCell>
        <mxCell id="zt0pq-uVjFT4mnIxrxLI-102" value="PreçoUnidade" style="ellipse;whiteSpace=wrap;html=1;align=center;" parent="1" vertex="1">
          <mxGeometry x="2225.63" y="315.86" width="90" height="40" as="geometry" />
        </mxCell>
        <mxCell id="zt0pq-uVjFT4mnIxrxLI-103" value="" style="endArrow=none;html=1;rounded=0;exitX=0.5;exitY=1;exitDx=0;exitDy=0;entryX=1;entryY=0.25;entryDx=0;entryDy=0;" parent="1" source="zt0pq-uVjFT4mnIxrxLI-98" target="zt0pq-uVjFT4mnIxrxLI-10" edge="1">
          <mxGeometry relative="1" as="geometry">
            <mxPoint x="2147.88" y="365.86" as="sourcePoint" />
            <mxPoint x="2087.88" y="740.86" as="targetPoint" />
            <Array as="points">
              <mxPoint x="2144.63" y="380" />
            </Array>
          </mxGeometry>
        </mxCell>
        <mxCell id="zt0pq-uVjFT4mnIxrxLI-104" value="" style="endArrow=none;html=1;rounded=0;entryX=1;entryY=0.5;entryDx=0;entryDy=0;exitX=0.5;exitY=1;exitDx=0;exitDy=0;" parent="1" source="7kGFSPkHBXp82wqXVGlI-6" target="zt0pq-uVjFT4mnIxrxLI-10" edge="1">
          <mxGeometry relative="1" as="geometry">
            <mxPoint x="2194.83" y="355.94000000000005" as="sourcePoint" />
            <mxPoint x="2087.88" y="750.86" as="targetPoint" />
            <Array as="points">
              <mxPoint x="2194.63" y="390" />
            </Array>
          </mxGeometry>
        </mxCell>
        <mxCell id="zt0pq-uVjFT4mnIxrxLI-107" value="" style="endArrow=none;html=1;rounded=0;exitX=0.998;exitY=0.708;exitDx=0;exitDy=0;entryX=0.49;entryY=1.007;entryDx=0;entryDy=0;entryPerimeter=0;exitPerimeter=0;" parent="1" source="zt0pq-uVjFT4mnIxrxLI-10" target="zt0pq-uVjFT4mnIxrxLI-102" edge="1">
          <mxGeometry relative="1" as="geometry">
            <mxPoint x="1855.88" y="435.86" as="sourcePoint" />
            <mxPoint x="1785.88" y="475.86" as="targetPoint" />
            <Array as="points">
              <mxPoint x="2269.63" y="400" />
            </Array>
          </mxGeometry>
        </mxCell>
        <mxCell id="zt0pq-uVjFT4mnIxrxLI-108" value="" style="endArrow=none;html=1;rounded=0;exitX=1;exitY=1;exitDx=0;exitDy=0;entryX=0.5;entryY=1;entryDx=0;entryDy=0;" parent="1" source="zt0pq-uVjFT4mnIxrxLI-10" target="zt0pq-uVjFT4mnIxrxLI-101" edge="1">
          <mxGeometry relative="1" as="geometry">
            <mxPoint x="1685.88" y="475.86" as="sourcePoint" />
            <mxPoint x="1609.88" y="455.86" as="targetPoint" />
            <Array as="points">
              <mxPoint x="2380.63" y="410" />
            </Array>
          </mxGeometry>
        </mxCell>
        <mxCell id="zt0pq-uVjFT4mnIxrxLI-109" value="Nome" style="ellipse;whiteSpace=wrap;html=1;align=center;" parent="1" vertex="1">
          <mxGeometry x="1040" y="-580" width="50" height="40" as="geometry" />
        </mxCell>
        <mxCell id="zt0pq-uVjFT4mnIxrxLI-110" value="CPF" style="ellipse;whiteSpace=wrap;html=1;align=center;fontStyle=4;" parent="1" vertex="1">
          <mxGeometry x="1045" y="-630" width="40" height="40" as="geometry" />
        </mxCell>
        <mxCell id="zt0pq-uVjFT4mnIxrxLI-112" value="Telefone" style="ellipse;whiteSpace=wrap;html=1;align=center;" parent="1" vertex="1">
          <mxGeometry x="1035" y="-730" width="60" height="40" as="geometry" />
        </mxCell>
        <mxCell id="zt0pq-uVjFT4mnIxrxLI-113" value="Salário" style="ellipse;whiteSpace=wrap;html=1;align=center;" parent="1" vertex="1">
          <mxGeometry x="1370" y="-440" width="50" height="40" as="geometry" />
        </mxCell>
        <mxCell id="zt0pq-uVjFT4mnIxrxLI-115" value="" style="endArrow=none;html=1;rounded=0;exitX=1;exitY=0.5;exitDx=0;exitDy=0;entryX=0.095;entryY=0;entryDx=0;entryDy=0;entryPerimeter=0;" parent="1" source="zt0pq-uVjFT4mnIxrxLI-109" target="zt0pq-uVjFT4mnIxrxLI-7" edge="1">
          <mxGeometry relative="1" as="geometry">
            <mxPoint x="1417" y="-160" as="sourcePoint" />
            <mxPoint x="1367" y="-110" as="targetPoint" />
            <Array as="points">
              <mxPoint x="1100" y="-560" />
            </Array>
          </mxGeometry>
        </mxCell>
        <mxCell id="zt0pq-uVjFT4mnIxrxLI-116" value="" style="endArrow=none;html=1;rounded=0;exitX=1;exitY=0.5;exitDx=0;exitDy=0;entryX=0.191;entryY=-0.003;entryDx=0;entryDy=0;entryPerimeter=0;" parent="1" source="zt0pq-uVjFT4mnIxrxLI-110" target="zt0pq-uVjFT4mnIxrxLI-7" edge="1">
          <mxGeometry relative="1" as="geometry">
            <mxPoint x="1425" y="-160" as="sourcePoint" />
            <mxPoint x="1130" y="-491" as="targetPoint" />
            <Array as="points">
              <mxPoint x="1109" y="-610" />
            </Array>
          </mxGeometry>
        </mxCell>
        <mxCell id="zt0pq-uVjFT4mnIxrxLI-117" value="Endereço" style="ellipse;whiteSpace=wrap;html=1;align=center;" parent="1" vertex="1">
          <mxGeometry x="1030" y="-680" width="70" height="40" as="geometry" />
        </mxCell>
        <mxCell id="zt0pq-uVjFT4mnIxrxLI-118" value="" style="endArrow=none;html=1;rounded=0;exitX=1;exitY=0.5;exitDx=0;exitDy=0;entryX=0.289;entryY=-0.002;entryDx=0;entryDy=0;entryPerimeter=0;" parent="1" source="zt0pq-uVjFT4mnIxrxLI-117" target="zt0pq-uVjFT4mnIxrxLI-7" edge="1">
          <mxGeometry relative="1" as="geometry">
            <mxPoint x="1630" y="-280" as="sourcePoint" />
            <mxPoint x="1445" y="-130" as="targetPoint" />
            <Array as="points">
              <mxPoint x="1119" y="-660" />
            </Array>
          </mxGeometry>
        </mxCell>
        <mxCell id="zt0pq-uVjFT4mnIxrxLI-122" value="" style="endArrow=none;html=1;rounded=0;entryX=1;entryY=0.5;entryDx=0;entryDy=0;exitX=0.385;exitY=-0.009;exitDx=0;exitDy=0;exitPerimeter=0;" parent="1" source="zt0pq-uVjFT4mnIxrxLI-7" target="zt0pq-uVjFT4mnIxrxLI-112" edge="1">
          <mxGeometry relative="1" as="geometry">
            <mxPoint x="1160" y="-500" as="sourcePoint" />
            <mxPoint x="1590" y="-90" as="targetPoint" />
            <Array as="points">
              <mxPoint x="1129" y="-710" />
            </Array>
          </mxGeometry>
        </mxCell>
        <mxCell id="E8cXSLZKVfraHOPP-bQz-2" value="ACOMPANHAMENTO" style="whiteSpace=wrap;html=1;align=center;" parent="1" vertex="1">
          <mxGeometry x="1700" y="150" width="130" height="40" as="geometry" />
        </mxCell>
        <mxCell id="fDMUJxDp8ltS3WUhhcoQ-4" value="FORNECEDOR" style="whiteSpace=wrap;html=1;align=center;" parent="1" vertex="1">
          <mxGeometry x="1700.5000000000002" y="480" width="130" height="40" as="geometry" />
        </mxCell>
        <mxCell id="Dj4pSS-FgmsRwzNsnVDU-1" value="ENTREGADOR" style="whiteSpace=wrap;html=1;align=center;" parent="1" vertex="1">
          <mxGeometry x="1260" y="-380" width="100" height="40" as="geometry" />
        </mxCell>
        <mxCell id="Dj4pSS-FgmsRwzNsnVDU-7" value="d" style="ellipse;whiteSpace=wrap;html=1;align=center;" parent="1" vertex="1">
          <mxGeometry x="1120" y="-400" width="40" height="40" as="geometry" />
        </mxCell>
        <mxCell id="Dj4pSS-FgmsRwzNsnVDU-9" value="" style="endArrow=none;html=1;rounded=0;exitX=1;exitY=0.5;exitDx=0;exitDy=0;entryX=0;entryY=0.5;entryDx=0;entryDy=0;entryPerimeter=0;" parent="1" source="zt0pq-uVjFT4mnIxrxLI-6" target="Dj4pSS-FgmsRwzNsnVDU-7" edge="1">
          <mxGeometry relative="1" as="geometry">
            <mxPoint x="1049" y="-360" as="sourcePoint" />
            <mxPoint x="1146" y="-390" as="targetPoint" />
          </mxGeometry>
        </mxCell>
        <mxCell id="Dj4pSS-FgmsRwzNsnVDU-10" value="" style="endArrow=none;html=1;rounded=0;exitX=1;exitY=0.5;exitDx=0;exitDy=0;entryX=0;entryY=0.5;entryDx=0;entryDy=0;" parent="1" source="Dj4pSS-FgmsRwzNsnVDU-7" target="Dj4pSS-FgmsRwzNsnVDU-1" edge="1">
          <mxGeometry relative="1" as="geometry">
            <mxPoint x="956" y="-350" as="sourcePoint" />
            <mxPoint x="1176" y="-390" as="targetPoint" />
          </mxGeometry>
        </mxCell>
        <mxCell id="Dj4pSS-FgmsRwzNsnVDU-15" value="" style="endArrow=none;html=1;rounded=0;entryX=0.5;entryY=0;entryDx=0;entryDy=0;exitX=0.5;exitY=1;exitDx=0;exitDy=0;" parent="1" source="zt0pq-uVjFT4mnIxrxLI-6" target="zt0pq-uVjFT4mnIxrxLI-12" edge="1">
          <mxGeometry relative="1" as="geometry">
            <mxPoint x="1544" y="-270" as="sourcePoint" />
            <mxPoint x="1543.5" y="-130" as="targetPoint" />
          </mxGeometry>
        </mxCell>
        <mxCell id="Dj4pSS-FgmsRwzNsnVDU-17" value="" style="shape=link;html=1;rounded=0;exitX=0.5;exitY=1;exitDx=0;exitDy=0;entryX=0.5;entryY=0;entryDx=0;entryDy=0;" parent="1" source="zt0pq-uVjFT4mnIxrxLI-7" target="Dj4pSS-FgmsRwzNsnVDU-7" edge="1">
          <mxGeometry relative="1" as="geometry">
            <mxPoint x="1050" y="-260" as="sourcePoint" />
            <mxPoint x="1210" y="-260" as="targetPoint" />
          </mxGeometry>
        </mxCell>
        <mxCell id="Dj4pSS-FgmsRwzNsnVDU-19" value="" style="shape=link;html=1;rounded=0;exitX=0.5;exitY=1;exitDx=0;exitDy=0;" parent="1" source="zt0pq-uVjFT4mnIxrxLI-14" edge="1">
          <mxGeometry relative="1" as="geometry">
            <mxPoint x="2037.88" y="214.86" as="sourcePoint" />
            <mxPoint x="2045.63" y="370" as="targetPoint" />
          </mxGeometry>
        </mxCell>
        <mxCell id="Dj4pSS-FgmsRwzNsnVDU-21" value="" style="shape=link;html=1;rounded=0;entryX=0.5;entryY=0;entryDx=0;entryDy=0;exitX=0.5;exitY=1;exitDx=0;exitDy=0;" parent="1" source="Dj4pSS-FgmsRwzNsnVDU-41" target="zt0pq-uVjFT4mnIxrxLI-14" edge="1">
          <mxGeometry relative="1" as="geometry">
            <mxPoint x="1650.88" y="195.86" as="sourcePoint" />
            <mxPoint x="1720.88" y="75.86000000000001" as="targetPoint" />
          </mxGeometry>
        </mxCell>
        <mxCell id="Dj4pSS-FgmsRwzNsnVDU-25" value="" style="shape=link;html=1;rounded=0;exitX=1;exitY=0.5;exitDx=0;exitDy=0;entryX=0;entryY=0.5;entryDx=0;entryDy=0;" parent="1" source="zt0pq-uVjFT4mnIxrxLI-12" target="zt0pq-uVjFT4mnIxrxLI-8" edge="1">
          <mxGeometry relative="1" as="geometry">
            <mxPoint x="791" y="-10" as="sourcePoint" />
            <mxPoint x="831" y="-30" as="targetPoint" />
          </mxGeometry>
        </mxCell>
        <mxCell id="Dj4pSS-FgmsRwzNsnVDU-27" value="&lt;u&gt;CNPJ&lt;/u&gt;" style="ellipse;whiteSpace=wrap;html=1;align=center;" parent="1" vertex="1">
          <mxGeometry x="1544.0000000000002" y="520" width="46" height="40" as="geometry" />
        </mxCell>
        <mxCell id="Dj4pSS-FgmsRwzNsnVDU-29" value="Telefone" style="ellipse;whiteSpace=wrap;html=1;align=center;" parent="1" vertex="1">
          <mxGeometry x="1530.0000000000002" y="570" width="60" height="40" as="geometry" />
        </mxCell>
        <mxCell id="Dj4pSS-FgmsRwzNsnVDU-30" value="" style="endArrow=none;html=1;rounded=0;entryX=1;entryY=0.5;entryDx=0;entryDy=0;exitX=0.109;exitY=0.999;exitDx=0;exitDy=0;exitPerimeter=0;" parent="1" source="fDMUJxDp8ltS3WUhhcoQ-4" target="Dj4pSS-FgmsRwzNsnVDU-27" edge="1">
          <mxGeometry relative="1" as="geometry">
            <mxPoint x="1718.6200000000001" y="520" as="sourcePoint" />
            <mxPoint x="2075.62" y="689.06" as="targetPoint" />
            <Array as="points">
              <mxPoint x="1714.5000000000002" y="540" />
            </Array>
          </mxGeometry>
        </mxCell>
        <mxCell id="Dj4pSS-FgmsRwzNsnVDU-31" value="" style="endArrow=none;html=1;rounded=0;entryX=1;entryY=0.5;entryDx=0;entryDy=0;exitX=0.184;exitY=0.987;exitDx=0;exitDy=0;exitPerimeter=0;" parent="1" source="fDMUJxDp8ltS3WUhhcoQ-4" target="Dj4pSS-FgmsRwzNsnVDU-29" edge="1">
          <mxGeometry relative="1" as="geometry">
            <mxPoint x="2450.62" y="830" as="sourcePoint" />
            <mxPoint x="1595.3700000000001" y="590" as="targetPoint" />
            <Array as="points">
              <mxPoint x="1724.5000000000002" y="590" />
            </Array>
          </mxGeometry>
        </mxCell>
        <mxCell id="Dj4pSS-FgmsRwzNsnVDU-33" value="Email" style="ellipse;whiteSpace=wrap;html=1;align=center;" parent="1" vertex="1">
          <mxGeometry x="1546.0000000000002" y="675" width="40" height="40" as="geometry" />
        </mxCell>
        <mxCell id="Dj4pSS-FgmsRwzNsnVDU-35" value="" style="endArrow=none;html=1;rounded=0;entryX=1;entryY=0.5;entryDx=0;entryDy=0;exitX=0.337;exitY=1;exitDx=0;exitDy=0;exitPerimeter=0;" parent="1" source="fDMUJxDp8ltS3WUhhcoQ-4" target="Dj4pSS-FgmsRwzNsnVDU-33" edge="1">
          <mxGeometry relative="1" as="geometry">
            <mxPoint x="2439.44" y="852.1999999999998" as="sourcePoint" />
            <mxPoint x="2175.62" y="969.06" as="targetPoint" />
            <Array as="points">
              <mxPoint x="1745" y="695" />
            </Array>
          </mxGeometry>
        </mxCell>
        <mxCell id="Dj4pSS-FgmsRwzNsnVDU-37" value="Email" style="ellipse;whiteSpace=wrap;html=1;align=center;" parent="1" vertex="1">
          <mxGeometry x="1040" y="-780" width="50" height="40" as="geometry" />
        </mxCell>
        <mxCell id="Dj4pSS-FgmsRwzNsnVDU-38" value="" style="endArrow=none;html=1;rounded=0;exitX=0.5;exitY=0;exitDx=0;exitDy=0;entryX=1;entryY=0.5;entryDx=0;entryDy=0;" parent="1" source="zt0pq-uVjFT4mnIxrxLI-7" target="Dj4pSS-FgmsRwzNsnVDU-37" edge="1">
          <mxGeometry relative="1" as="geometry">
            <mxPoint x="1185" y="-479" as="sourcePoint" />
            <mxPoint x="1225" y="-510" as="targetPoint" />
            <Array as="points">
              <mxPoint x="1139" y="-760" />
            </Array>
          </mxGeometry>
        </mxCell>
        <mxCell id="Dj4pSS-FgmsRwzNsnVDU-41" value="PIZZA" style="whiteSpace=wrap;html=1;align=center;" parent="1" vertex="1">
          <mxGeometry x="1995.63" y="150" width="100" height="40" as="geometry" />
        </mxCell>
        <mxCell id="Dj4pSS-FgmsRwzNsnVDU-42" value="d" style="ellipse;whiteSpace=wrap;html=1;align=center;" parent="1" vertex="1">
          <mxGeometry x="1894.63" y="70" width="40" height="40" as="geometry" />
        </mxCell>
        <mxCell id="Dj4pSS-FgmsRwzNsnVDU-43" value="" style="endArrow=none;html=1;rounded=0;exitX=0.5;exitY=0;exitDx=0;exitDy=0;entryX=1;entryY=1;entryDx=0;entryDy=0;" parent="1" source="Dj4pSS-FgmsRwzNsnVDU-41" target="Dj4pSS-FgmsRwzNsnVDU-42" edge="1">
          <mxGeometry relative="1" as="geometry">
            <mxPoint x="1975.88" y="55.860000000000014" as="sourcePoint" />
            <mxPoint x="1875.0221356237307" y="110.00213562373062" as="targetPoint" />
          </mxGeometry>
        </mxCell>
        <mxCell id="Dj4pSS-FgmsRwzNsnVDU-44" value="" style="endArrow=none;html=1;rounded=0;exitX=0.5;exitY=0;exitDx=0;exitDy=0;entryX=0.5;entryY=1;entryDx=0;entryDy=0;" parent="1" source="Dj4pSS-FgmsRwzNsnVDU-42" target="zt0pq-uVjFT4mnIxrxLI-9" edge="1">
          <mxGeometry relative="1" as="geometry">
            <mxPoint x="2130.63" y="180" as="sourcePoint" />
            <mxPoint x="2039.63" y="114" as="targetPoint" />
          </mxGeometry>
        </mxCell>
        <mxCell id="Dj4pSS-FgmsRwzNsnVDU-45" value="" style="endArrow=none;html=1;rounded=0;exitX=0.5;exitY=0;exitDx=0;exitDy=0;entryX=0;entryY=1;entryDx=0;entryDy=0;" parent="1" source="E8cXSLZKVfraHOPP-bQz-2" target="Dj4pSS-FgmsRwzNsnVDU-42" edge="1">
          <mxGeometry relative="1" as="geometry">
            <mxPoint x="1840.25" y="185.86" as="sourcePoint" />
            <mxPoint x="1711.1078643762694" y="110.00213562373062" as="targetPoint" />
          </mxGeometry>
        </mxCell>
        <mxCell id="Dj4pSS-FgmsRwzNsnVDU-46" value="BEBIDA" style="whiteSpace=wrap;html=1;align=center;" parent="1" vertex="1">
          <mxGeometry x="1380" y="230" width="130" height="40" as="geometry" />
        </mxCell>
        <mxCell id="Dj4pSS-FgmsRwzNsnVDU-47" value="SOBREMESA" style="whiteSpace=wrap;html=1;align=center;" parent="1" vertex="1">
          <mxGeometry x="1380" y="70" width="130" height="40" as="geometry" />
        </mxCell>
        <mxCell id="Dj4pSS-FgmsRwzNsnVDU-48" value="d" style="ellipse;whiteSpace=wrap;html=1;align=center;" parent="1" vertex="1">
          <mxGeometry x="1520" y="150" width="40" height="40" as="geometry" />
        </mxCell>
        <mxCell id="Dj4pSS-FgmsRwzNsnVDU-49" value="" style="endArrow=none;html=1;rounded=0;exitX=0.5;exitY=1;exitDx=0;exitDy=0;entryX=0;entryY=0;entryDx=0;entryDy=0;" parent="1" source="Dj4pSS-FgmsRwzNsnVDU-47" target="Dj4pSS-FgmsRwzNsnVDU-48" edge="1">
          <mxGeometry relative="1" as="geometry">
            <mxPoint x="1594.37" y="195.86" as="sourcePoint" />
            <mxPoint x="1725.37" y="119.86000000000001" as="targetPoint" />
          </mxGeometry>
        </mxCell>
        <mxCell id="Dj4pSS-FgmsRwzNsnVDU-50" value="" style="endArrow=none;html=1;rounded=0;exitX=0.5;exitY=0;exitDx=0;exitDy=0;entryX=0;entryY=1;entryDx=0;entryDy=0;" parent="1" source="Dj4pSS-FgmsRwzNsnVDU-46" target="Dj4pSS-FgmsRwzNsnVDU-48" edge="1">
          <mxGeometry relative="1" as="geometry">
            <mxPoint x="1486.37" y="325.86" as="sourcePoint" />
            <mxPoint x="1569.37" y="286.86" as="targetPoint" />
          </mxGeometry>
        </mxCell>
        <mxCell id="Dj4pSS-FgmsRwzNsnVDU-51" value="" style="endArrow=none;html=1;rounded=0;entryX=0;entryY=0.5;entryDx=0;entryDy=0;exitX=1;exitY=0.5;exitDx=0;exitDy=0;" parent="1" source="Dj4pSS-FgmsRwzNsnVDU-48" target="E8cXSLZKVfraHOPP-bQz-2" edge="1">
          <mxGeometry relative="1" as="geometry">
            <mxPoint x="1619" y="251" as="sourcePoint" />
            <mxPoint x="1619" y="220" as="targetPoint" />
          </mxGeometry>
        </mxCell>
        <mxCell id="GcDTC7O7Cp-k1BxJZ29d-2" value="" style="endArrow=none;html=1;rounded=0;exitX=0.25;exitY=1;exitDx=0;exitDy=0;entryX=1;entryY=0.5;entryDx=0;entryDy=0;" parent="1" source="fDMUJxDp8ltS3WUhhcoQ-4" target="7kGFSPkHBXp82wqXVGlI-8" edge="1">
          <mxGeometry relative="1" as="geometry">
            <mxPoint x="1733" y="509.9999999999998" as="sourcePoint" />
            <mxPoint x="1580" y="640" as="targetPoint" />
            <Array as="points">
              <mxPoint x="1733" y="640" />
            </Array>
          </mxGeometry>
        </mxCell>
        <mxCell id="CTJb7w57PAYLdMN34RO3-8" value="" style="endArrow=none;html=1;rounded=0;" parent="1" source="zt0pq-uVjFT4mnIxrxLI-59" edge="1">
          <mxGeometry width="50" height="50" relative="1" as="geometry">
            <mxPoint x="1250" y="58.889999999999986" as="sourcePoint" />
            <mxPoint x="1270" y="60" as="targetPoint" />
            <Array as="points">
              <mxPoint x="1270" y="60" />
              <mxPoint x="1270" y="10" />
            </Array>
          </mxGeometry>
        </mxCell>
        <mxCell id="CTJb7w57PAYLdMN34RO3-9" value="" style="endArrow=none;html=1;rounded=0;entryX=0.192;entryY=1.006;entryDx=0;entryDy=0;entryPerimeter=0;" parent="1" source="zt0pq-uVjFT4mnIxrxLI-62" target="zt0pq-uVjFT4mnIxrxLI-8" edge="1">
          <mxGeometry width="50" height="50" relative="1" as="geometry">
            <mxPoint x="1240" y="110" as="sourcePoint" />
            <mxPoint x="1320" y="110" as="targetPoint" />
            <Array as="points">
              <mxPoint x="1279" y="110" />
            </Array>
          </mxGeometry>
        </mxCell>
        <mxCell id="CTJb7w57PAYLdMN34RO3-11" value="" style="endArrow=none;html=1;rounded=0;" parent="1" source="zt0pq-uVjFT4mnIxrxLI-60" edge="1">
          <mxGeometry width="50" height="50" relative="1" as="geometry">
            <mxPoint x="1235" y="160" as="sourcePoint" />
            <mxPoint x="1290" y="10" as="targetPoint" />
            <Array as="points">
              <mxPoint x="1290" y="160" />
            </Array>
          </mxGeometry>
        </mxCell>
        <mxCell id="CTJb7w57PAYLdMN34RO3-12" value="" style="endArrow=none;html=1;rounded=0;entryX=0.404;entryY=1;entryDx=0;entryDy=0;entryPerimeter=0;" parent="1" target="zt0pq-uVjFT4mnIxrxLI-8" edge="1">
          <mxGeometry width="50" height="50" relative="1" as="geometry">
            <mxPoint x="1250" y="210" as="sourcePoint" />
            <mxPoint x="1301" y="60" as="targetPoint" />
            <Array as="points">
              <mxPoint x="1301" y="210" />
            </Array>
          </mxGeometry>
        </mxCell>
        <mxCell id="CTJb7w57PAYLdMN34RO3-16" value="" style="endArrow=none;html=1;rounded=0;entryX=0;entryY=0.5;entryDx=0;entryDy=0;exitX=0.75;exitY=0;exitDx=0;exitDy=0;" parent="1" source="Dj4pSS-FgmsRwzNsnVDU-1" target="zt0pq-uVjFT4mnIxrxLI-113" edge="1">
          <mxGeometry relative="1" as="geometry">
            <mxPoint x="1350" y="-384" as="sourcePoint" />
            <mxPoint x="1365" y="-454" as="targetPoint" />
            <Array as="points">
              <mxPoint x="1335" y="-420" />
            </Array>
          </mxGeometry>
        </mxCell>
        <mxCell id="ta3UpPhxNMh2X5FjBgK5-1" value="(0,N)" style="text;html=1;align=center;verticalAlign=middle;resizable=0;points=[];autosize=1;strokeColor=none;fillColor=none;" parent="1" vertex="1">
          <mxGeometry x="918" y="-70" width="50" height="30" as="geometry" />
        </mxCell>
        <mxCell id="ta3UpPhxNMh2X5FjBgK5-2" value="(1,1)" style="text;html=1;align=center;verticalAlign=middle;resizable=0;points=[];autosize=1;strokeColor=none;fillColor=none;" parent="1" vertex="1">
          <mxGeometry x="1026" y="-40" width="50" height="30" as="geometry" />
        </mxCell>
        <mxCell id="ta3UpPhxNMh2X5FjBgK5-3" value="(0,N)" style="text;html=1;align=center;verticalAlign=middle;resizable=0;points=[];autosize=1;strokeColor=none;fillColor=none;" parent="1" vertex="1">
          <mxGeometry x="1260" y="-270" width="50" height="30" as="geometry" />
        </mxCell>
        <mxCell id="ta3UpPhxNMh2X5FjBgK5-4" value="(1,1)" style="text;html=1;align=center;verticalAlign=middle;resizable=0;points=[];autosize=1;strokeColor=none;fillColor=none;" parent="1" vertex="1">
          <mxGeometry x="1260" y="-180" width="50" height="30" as="geometry" />
        </mxCell>
        <mxCell id="ta3UpPhxNMh2X5FjBgK5-5" value="(1,N)" style="text;html=1;align=center;verticalAlign=middle;resizable=0;points=[];autosize=1;strokeColor=none;fillColor=none;" parent="1" vertex="1">
          <mxGeometry x="1510" y="-40" width="50" height="30" as="geometry" />
        </mxCell>
        <mxCell id="ta3UpPhxNMh2X5FjBgK5-6" value="(0,N)" style="text;html=1;align=center;verticalAlign=middle;resizable=0;points=[];autosize=1;strokeColor=none;fillColor=none;" parent="1" vertex="1">
          <mxGeometry x="1670.75" y="-40" width="50" height="30" as="geometry" />
        </mxCell>
        <mxCell id="ta3UpPhxNMh2X5FjBgK5-9" value="Tipo_Acompahamento" style="text;html=1;align=center;verticalAlign=middle;resizable=0;points=[];autosize=1;strokeColor=none;fillColor=none;" parent="1" vertex="1">
          <mxGeometry x="1560" y="180" width="140" height="30" as="geometry" />
        </mxCell>
        <mxCell id="ta3UpPhxNMh2X5FjBgK5-10" value="(1,N)" style="text;html=1;align=center;verticalAlign=middle;resizable=0;points=[];autosize=1;strokeColor=none;fillColor=none;" parent="1" vertex="1">
          <mxGeometry x="1995.88" y="315.86" width="50" height="30" as="geometry" />
        </mxCell>
        <mxCell id="FSlojEuuLoAWjcUjWDI2-3" value="" style="shape=link;html=1;rounded=0;exitX=0.5;exitY=1;exitDx=0;exitDy=0;entryX=0.5;entryY=0;entryDx=0;entryDy=0;" parent="1" source="zt0pq-uVjFT4mnIxrxLI-20" target="zt0pq-uVjFT4mnIxrxLI-8" edge="1">
          <mxGeometry relative="1" as="geometry">
            <mxPoint x="1320" y="-230" as="sourcePoint" />
            <mxPoint x="1441" y="-324" as="targetPoint" />
          </mxGeometry>
        </mxCell>
        <mxCell id="FSlojEuuLoAWjcUjWDI2-5" value="" style="endArrow=none;html=1;rounded=0;exitX=0.5;exitY=0;exitDx=0;exitDy=0;entryX=0.5;entryY=1;entryDx=0;entryDy=0;" parent="1" source="zt0pq-uVjFT4mnIxrxLI-20" target="Dj4pSS-FgmsRwzNsnVDU-1" edge="1">
          <mxGeometry relative="1" as="geometry">
            <mxPoint x="1200" y="-264" as="sourcePoint" />
            <mxPoint x="1310" y="-330" as="targetPoint" />
            <Array as="points">
              <mxPoint x="1310" y="-310" />
            </Array>
          </mxGeometry>
        </mxCell>
        <mxCell id="cGFEiXwk4IytkIaJNhpY-1" value="Quantidade" style="ellipse;whiteSpace=wrap;html=1;align=center;" parent="1" vertex="1">
          <mxGeometry x="2135.63" y="225" width="90" height="40" as="geometry" />
        </mxCell>
        <mxCell id="cGFEiXwk4IytkIaJNhpY-2" value="" style="endArrow=none;html=1;rounded=0;entryX=1;entryY=0.5;entryDx=0;entryDy=0;exitX=0.541;exitY=0.998;exitDx=0;exitDy=0;exitPerimeter=0;" parent="1" source="cGFEiXwk4IytkIaJNhpY-1" target="zt0pq-uVjFT4mnIxrxLI-14" edge="1">
          <mxGeometry relative="1" as="geometry">
            <mxPoint x="2199.63" y="270" as="sourcePoint" />
            <mxPoint x="2105.63" y="290.86" as="targetPoint" />
            <Array as="points">
              <mxPoint x="2184.63" y="290" />
            </Array>
          </mxGeometry>
        </mxCell>
        <mxCell id="cGFEiXwk4IytkIaJNhpY-4" value="FORNECE" style="shape=rhombus;perimeter=rhombusPerimeter;whiteSpace=wrap;html=1;align=center;" parent="1" vertex="1">
          <mxGeometry x="1705.0000000000002" y="300.86" width="120" height="60" as="geometry" />
        </mxCell>
        <mxCell id="cGFEiXwk4IytkIaJNhpY-6" value="" style="endArrow=none;html=1;rounded=0;exitX=0;exitY=0.5;exitDx=0;exitDy=0;entryX=1;entryY=0.5;entryDx=0;entryDy=0;" parent="1" source="cGFEiXwk4IytkIaJNhpY-4" target="cGFEiXwk4IytkIaJNhpY-8" edge="1">
          <mxGeometry relative="1" as="geometry">
            <mxPoint x="1844.7500000000002" y="417.5" as="sourcePoint" />
            <mxPoint x="1909.2500000000002" y="397.5" as="targetPoint" />
          </mxGeometry>
        </mxCell>
        <mxCell id="cGFEiXwk4IytkIaJNhpY-7" value="" style="endArrow=none;html=1;rounded=0;exitX=1;exitY=0.5;exitDx=0;exitDy=0;entryX=0;entryY=0.5;entryDx=0;entryDy=0;" parent="1" source="cGFEiXwk4IytkIaJNhpY-9" target="cGFEiXwk4IytkIaJNhpY-4" edge="1">
          <mxGeometry relative="1" as="geometry">
            <mxPoint x="1639.6200000000001" y="397.04999999999995" as="sourcePoint" />
            <mxPoint x="1714.6200000000001" y="397.04999999999995" as="targetPoint" />
          </mxGeometry>
        </mxCell>
        <mxCell id="cGFEiXwk4IytkIaJNhpY-8" value="Preço" style="ellipse;whiteSpace=wrap;html=1;align=center;" parent="1" vertex="1">
          <mxGeometry x="1611.0000000000002" y="297.5" width="60" height="40" as="geometry" />
        </mxCell>
        <mxCell id="cGFEiXwk4IytkIaJNhpY-9" value="Quantidade" style="ellipse;whiteSpace=wrap;html=1;align=center;" parent="1" vertex="1">
          <mxGeometry x="1601.0000000000002" y="355.86" width="70" height="40" as="geometry" />
        </mxCell>
        <mxCell id="cGFEiXwk4IytkIaJNhpY-12" value="(1,N)" style="text;html=1;align=center;verticalAlign=middle;resizable=0;points=[];autosize=1;strokeColor=none;fillColor=none;" parent="1" vertex="1">
          <mxGeometry x="1760.0000000000002" y="260" width="50" height="30" as="geometry" />
        </mxCell>
        <mxCell id="cGFEiXwk4IytkIaJNhpY-13" value="(0,N)" style="text;html=1;align=center;verticalAlign=middle;resizable=0;points=[];autosize=1;strokeColor=none;fillColor=none;" parent="1" vertex="1">
          <mxGeometry x="1760.0000000000002" y="375" width="50" height="30" as="geometry" />
        </mxCell>
        <mxCell id="lIQoNBGee79KcWso_KXJ-1" value="PreçoTotal" style="ellipse;whiteSpace=wrap;html=1;align=center;dashed=1;" parent="1" vertex="1">
          <mxGeometry x="1150" y="190" width="100" height="40" as="geometry" />
        </mxCell>
        <mxCell id="7kGFSPkHBXp82wqXVGlI-1" value="Nome" style="ellipse;whiteSpace=wrap;html=1;align=center;" parent="1" vertex="1">
          <mxGeometry x="2038.63" y="-70" width="40" height="40" as="geometry" />
        </mxCell>
        <mxCell id="7kGFSPkHBXp82wqXVGlI-4" value="(1,N)" style="text;html=1;align=center;verticalAlign=middle;resizable=0;points=[];autosize=1;strokeColor=none;fillColor=none;" parent="1" vertex="1">
          <mxGeometry x="1995.88" y="230" width="50" height="30" as="geometry" />
        </mxCell>
        <mxCell id="7kGFSPkHBXp82wqXVGlI-6" value="Nome" style="ellipse;whiteSpace=wrap;html=1;align=center;" parent="1" vertex="1">
          <mxGeometry x="2174.63" y="315.86" width="40" height="40" as="geometry" />
        </mxCell>
        <mxCell id="7kGFSPkHBXp82wqXVGlI-8" value="NomeEmpresa" style="ellipse;whiteSpace=wrap;html=1;align=center;" parent="1" vertex="1">
          <mxGeometry x="1490" y="620" width="90" height="40" as="geometry" />
        </mxCell>
        <mxCell id="OZFMmhO5_p4KRE6lBq9O-2" value="" style="ellipse;whiteSpace=wrap;html=1;align=center;aspect=fixed;fillColor=none;strokeColor=none;resizable=0;perimeter=centerPerimeter;rotatable=0;allowArrows=0;points=[];outlineConnect=1;" parent="1" vertex="1">
          <mxGeometry x="1350" y="-380" width="10" height="10" as="geometry" />
        </mxCell>
        <mxCell id="OZFMmhO5_p4KRE6lBq9O-3" value="" style="rounded=0;orthogonalLoop=1;jettySize=auto;html=1;endArrow=halfCircle;endFill=0;endSize=6;strokeWidth=1;sketch=0;fontSize=12;curved=1;exitX=0;exitY=0.5;exitDx=0;exitDy=0;" parent="1" source="Dj4pSS-FgmsRwzNsnVDU-1" edge="1">
          <mxGeometry relative="1" as="geometry">
            <mxPoint x="1190" y="-360" as="sourcePoint" />
            <mxPoint x="1210" y="-370" as="targetPoint" />
          </mxGeometry>
        </mxCell>
        <mxCell id="OZFMmhO5_p4KRE6lBq9O-4" value="" style="rounded=0;orthogonalLoop=1;jettySize=auto;html=1;endArrow=halfCircle;endFill=0;endSize=6;strokeWidth=1;sketch=0;fontSize=12;curved=1;exitX=1;exitY=0.5;exitDx=0;exitDy=0;" parent="1" source="zt0pq-uVjFT4mnIxrxLI-6" edge="1">
          <mxGeometry relative="1" as="geometry">
            <mxPoint x="1049" y="-360" as="sourcePoint" />
            <mxPoint x="1070" y="-370" as="targetPoint" />
          </mxGeometry>
        </mxCell>
        <mxCell id="f_UdIWK78O6IHa8rP0Me-5" value="" style="rounded=0;orthogonalLoop=1;jettySize=auto;html=1;endArrow=halfCircle;endFill=0;endSize=6;strokeWidth=1;sketch=0;fontSize=12;curved=1;exitX=1;exitY=0.5;exitDx=0;exitDy=0;" parent="1" source="Dj4pSS-FgmsRwzNsnVDU-48" edge="1">
          <mxGeometry relative="1" as="geometry">
            <mxPoint x="1636" y="200" as="sourcePoint" />
            <mxPoint x="1640" y="170" as="targetPoint" />
          </mxGeometry>
        </mxCell>
        <mxCell id="f_UdIWK78O6IHa8rP0Me-6" value="FORNECE" style="shape=rhombus;perimeter=rhombusPerimeter;whiteSpace=wrap;html=1;align=center;" parent="1" vertex="1">
          <mxGeometry x="1988.38" y="470" width="120" height="60" as="geometry" />
        </mxCell>
        <mxCell id="f_UdIWK78O6IHa8rP0Me-7" value="" style="endArrow=none;html=1;rounded=0;exitX=1;exitY=0.5;exitDx=0;exitDy=0;entryX=0;entryY=0.5;entryDx=0;entryDy=0;" parent="1" source="f_UdIWK78O6IHa8rP0Me-6" target="f_UdIWK78O6IHa8rP0Me-9" edge="1">
          <mxGeometry relative="1" as="geometry">
            <mxPoint x="2196.75" y="630" as="sourcePoint" />
            <mxPoint x="2261.25" y="610" as="targetPoint" />
          </mxGeometry>
        </mxCell>
        <mxCell id="f_UdIWK78O6IHa8rP0Me-8" value="" style="endArrow=none;html=1;rounded=0;exitX=0;exitY=0.5;exitDx=0;exitDy=0;entryX=1;entryY=0.5;entryDx=0;entryDy=0;" parent="1" source="f_UdIWK78O6IHa8rP0Me-10" target="f_UdIWK78O6IHa8rP0Me-6" edge="1">
          <mxGeometry relative="1" as="geometry">
            <mxPoint x="1991.6200000000001" y="609.55" as="sourcePoint" />
            <mxPoint x="2066.62" y="609.55" as="targetPoint" />
          </mxGeometry>
        </mxCell>
        <mxCell id="f_UdIWK78O6IHa8rP0Me-9" value="Preço" style="ellipse;whiteSpace=wrap;html=1;align=center;" parent="1" vertex="1">
          <mxGeometry x="2190" y="470" width="60" height="40" as="geometry" />
        </mxCell>
        <mxCell id="f_UdIWK78O6IHa8rP0Me-10" value="Quantidade" style="ellipse;whiteSpace=wrap;html=1;align=center;" parent="1" vertex="1">
          <mxGeometry x="2190" y="520" width="70" height="40" as="geometry" />
        </mxCell>
        <mxCell id="f_UdIWK78O6IHa8rP0Me-11" value="(1,N)" style="text;html=1;align=center;verticalAlign=middle;resizable=0;points=[];autosize=1;strokeColor=none;fillColor=none;" parent="1" vertex="1">
          <mxGeometry x="2045.88" y="440" width="50" height="30" as="geometry" />
        </mxCell>
        <mxCell id="f_UdIWK78O6IHa8rP0Me-12" value="(0,N)" style="text;html=1;align=center;verticalAlign=middle;resizable=0;points=[];autosize=1;strokeColor=none;fillColor=none;" parent="1" vertex="1">
          <mxGeometry x="1934.63" y="510" width="50" height="30" as="geometry" />
        </mxCell>
        <mxCell id="f_UdIWK78O6IHa8rP0Me-17" value="" style="rounded=0;orthogonalLoop=1;jettySize=auto;html=1;endArrow=halfCircle;endFill=0;endSize=6;strokeWidth=1;sketch=0;fontSize=12;curved=1;exitX=0.5;exitY=0;exitDx=0;exitDy=0;" parent="1" source="Dj4pSS-FgmsRwzNsnVDU-42" edge="1">
          <mxGeometry relative="1" as="geometry">
            <mxPoint x="1570" y="180" as="sourcePoint" />
            <mxPoint x="1915" y="30" as="targetPoint" />
          </mxGeometry>
        </mxCell>
        <mxCell id="TX68ASlTUW1YRTyn1bOe-1" value="" style="shape=link;html=1;rounded=0;exitX=1;exitY=0.5;exitDx=0;exitDy=0;entryX=0;entryY=0.5;entryDx=0;entryDy=0;" parent="1" source="zt0pq-uVjFT4mnIxrxLI-8" target="zt0pq-uVjFT4mnIxrxLI-13" edge="1">
          <mxGeometry relative="1" as="geometry">
            <mxPoint x="1036" as="sourcePoint" />
            <mxPoint x="1430" y="30" as="targetPoint" />
          </mxGeometry>
        </mxCell>
        <mxCell id="TX68ASlTUW1YRTyn1bOe-2" value="" style="shape=link;html=1;rounded=0;entryX=0.5;entryY=1;entryDx=0;entryDy=0;exitX=0.5;exitY=0;exitDx=0;exitDy=0;" parent="1" source="f_UdIWK78O6IHa8rP0Me-6" target="zt0pq-uVjFT4mnIxrxLI-10" edge="1">
          <mxGeometry relative="1" as="geometry">
            <mxPoint x="2090" y="430" as="sourcePoint" />
            <mxPoint x="2055.63" y="380" as="targetPoint" />
          </mxGeometry>
        </mxCell>
        <mxCell id="TX68ASlTUW1YRTyn1bOe-5" value="" style="shape=link;html=1;rounded=0;exitX=0.5;exitY=0;exitDx=0;exitDy=0;entryX=0.5;entryY=1;entryDx=0;entryDy=0;" parent="1" source="cGFEiXwk4IytkIaJNhpY-4" target="E8cXSLZKVfraHOPP-bQz-2" edge="1">
          <mxGeometry relative="1" as="geometry">
            <mxPoint x="1776" y="490" as="sourcePoint" />
            <mxPoint x="1775" y="371" as="targetPoint" />
          </mxGeometry>
        </mxCell>
        <mxCell id="hnfnFu3bTyJmKrwR5RrZ-1" value="" style="endArrow=none;html=1;rounded=0;entryX=0;entryY=0.5;entryDx=0;entryDy=0;exitX=1;exitY=0.5;exitDx=0;exitDy=0;" edge="1" parent="1" source="fDMUJxDp8ltS3WUhhcoQ-4" target="f_UdIWK78O6IHa8rP0Me-6">
          <mxGeometry relative="1" as="geometry">
            <mxPoint x="1802.88" y="330.3" as="sourcePoint" />
            <mxPoint x="1995.88" y="330.3" as="targetPoint" />
          </mxGeometry>
        </mxCell>
        <mxCell id="hnfnFu3bTyJmKrwR5RrZ-3" value="" style="endArrow=none;html=1;rounded=0;entryX=0.5;entryY=0;entryDx=0;entryDy=0;exitX=0.5;exitY=1;exitDx=0;exitDy=0;" edge="1" parent="1" source="cGFEiXwk4IytkIaJNhpY-4" target="fDMUJxDp8ltS3WUhhcoQ-4">
          <mxGeometry relative="1" as="geometry">
            <mxPoint x="1730" y="438.89" as="sourcePoint" />
            <mxPoint x="1923" y="438.89" as="targetPoint" />
          </mxGeometry>
        </mxCell>
      </root>
    </mxGraphModel>
  </diagram>
</mxfile>
